# xmcd
#
# Track frame offsets: 
#        150
#        12675
#        29625
#        41257
#        54175
#        66050
#        76950
#        93312
#        108237
#        123075
#        134162
#
# Disc length: 1975 seconds
#
# Revision: 0
# Processed by: cddbd v1.5.2PL0 Copyright (c) Steve Scherf et al.
# Submitted via: ExactAudioCopy v0.99pb5
#
DISCID=8c07b50b
DTITLE=LynnAnderson - Stand_By_Your_Man
DYEAR=2000
DGENRE=Country
TTITLE0=Stand By Your Man
TTITLE1=Blue Bayou
TTITLE2=Listen To A Country Song
TTITLE3=Top Of The World
TTITLE4=Rodeo Cowboy
TTITLE5=Heaven's Just A Sin Away
TTITLE6=Devil Went Down To Georgia
TTITLE7=Gone At Last
TTITLE8=Faithless Love
TTITLE9=Someday Soon
TTITLE10=Two Doors Down
EXTD=
EXTT0=
EXTT1=
EXTT2=
EXTT3=
EXTT4=
EXTT5=
EXTT6=
EXTT7=
EXTT8=
EXTT9=
EXTT10=
PLAYORDER=
